<svg width="486" height="486" viewBox="0 0 486 486" fill="none" xmlns="http://www.w3.org/2000/svg">
<rect width="486" height="486" fill="white"/>
<mask id="path-1-inside-1_1_27" fill="white">
<rect x="156" y="163.277" width="218" height="218" rx="10" transform="rotate(-3.75495 156 163.277)"/>
</mask>
<rect x="156" y="163.277" width="218" height="218" rx="10" transform="rotate(-3.75495 156 163.277)" stroke="#656565" stroke-width="26" mask="url(#path-1-inside-1_1_27)"/>
<line x1="104.61" y1="119.732" x2="168.61" y2="175.732" stroke="#656565" stroke-width="14"/>
<line x1="112.393" y1="319.55" x2="179.393" y2="373.55" stroke="#656565" stroke-width="14"/>
<line x1="307.969" y1="99.0694" x2="369.175" y2="160.75" stroke="#656565" stroke-width="14"/>
<line x1="97.4519" y1="118.897" x2="313.786" y2="101.906" stroke="#656565" stroke-width="14"/>
<line x1="115.008" y1="325.338" x2="105.008" y2="118.338" stroke="#656565" stroke-width="14"/>
<path d="M119.822 318.623L110 132L159.11 174.368L171 362L119.822 318.623Z" fill="#656565"/>
<path d="M233.799 330.343L194.48 224.342L224.968 221.606L248.355 293.098L249.345 293.009L260.337 218.432L290.26 215.747L314.599 286.725L315.519 286.642L325.558 212.579L355.976 209.85L336.228 321.151L304.325 324.014L279.518 257.357L278.174 257.477L265.631 327.486L233.799 330.343Z" fill="#656565"/>
</svg>
